<?xml version="1.0" standalone="no"?>
<!DOCTYPE svg PUBLIC "-//W3C//DTD SVG 1.1//EN" "http://www.w3.org/Graphics/SVG/1.1/DTD/svg11.dtd" >
<svg xmlns="http://www.w3.org/2000/svg">
<metadata>Generated by IcoMoon</metadata>
<defs>
<font id="wly" horiz-adv-x="1024">
<font-face units-per-em="1024" ascent="960" descent="-64" />
<missing-glyph horiz-adv-x="1024" />
<glyph unicode="&#x20;" horiz-adv-x="512" d="" />
<glyph unicode="&#xe600;" glyph-name="pencial" d="M976 742.4l-172.8 172.8c-38.4 38.4-99.2 38.4-134.4 0l-54.4-51.2-22.4-22.4 310.4-310.4 76.8 76.8c32 38.4 32 99.2-3.2 134.4zM105.6 358.4l320-320c57.6 60.8 336 358.4 451.2 470.4l-310.4 310.4-460.8-460.8zM22.4-48l374.4 70.4-304 304z" />
<glyph unicode="&#xe601;" glyph-name="pencial-o" d="M976 742.4l-172.8 172.8c-19.2 19.2-44.8 28.8-67.2 28.8s-48-9.6-67.2-28.8l-54.4-51.2-518.4-518.4-6.4-35.2-67.2-358.4 355.2 67.2 3.2-3.2 3.2 3.2 32 6.4c0 0 361.6 384 473.6 496v0l83.2 83.2c38.4 41.6 38.4 102.4 3.2 137.6zM163.2 323.2l438.4 438.4 217.6-217.6c-112-115.2-352-368-428.8-448l-227.2 227.2zM102.4 32l41.6 220.8 179.2-179.2-220.8-41.6zM928 652.8l-64-64-217.6 217.6 64 64c9.6 9.6 19.2 9.6 22.4 9.6 6.4 0 16 0 22.4-9.6l172.8-172.8c12.8-12.8 12.8-32 0-44.8z" />
<glyph unicode="&#xe602;" glyph-name="phone" d="M752 960h-480c-51.2 0-92.8-41.6-92.8-96v-832c0-51.2 41.6-96 92.8-96h480c51.2 0 92.8 41.6 92.8 96v832c0 54.4-41.6 96-92.8 96zM582.4 908.8c9.6 9.6 25.6 9.6 35.2 0 6.4-6.4 6.4-12.8 6.4-19.2s-3.2-12.8-6.4-19.2c-3.2-3.2-12.8-6.4-19.2-6.4s-12.8 3.2-19.2 6.4c-6.4 3.2-6.4 12.8-6.4 19.2s3.2 12.8 9.6 19.2zM425.6 915.2h112c12.8 0 25.6-12.8 25.6-25.6s-12.8-25.6-28.8-25.6h-112c-12.8 0-25.6 12.8-25.6 25.6s12.8 25.6 28.8 25.6zM512-25.6c-28.8 0-51.2 22.4-51.2 51.2s22.4 51.2 51.2 51.2c28.8 0 51.2-22.4 51.2-51.2 0-25.6-22.4-51.2-51.2-51.2zM790.4 102.4h-556.8v742.4h560v-742.4z" />
<glyph unicode="&#xe607;" glyph-name="print" d="M256 32c0-54.4 41.6-96 96-96h320c54.4 0 96 41.6 96 96v160h-512v-160zM928 688h-96v176c0 54.4-41.6 96-96 96h-448c-54.4 0-96-44.8-96-96v-176h-96c-54.4 0-96-41.6-96-96v-384c0-54.4 41.6-96 96-96h96v144h640v-144h96c54.4 0 96 41.6 96 96v384c0 51.2-41.6 96-96 96zM768 640h-512v224c0 19.2 12.8 32 32 32h448c19.2 0 32-12.8 32-32v-224z" />
<glyph unicode="&#xe608;" glyph-name="exit" d="M1024 448l-240 233.6v-185.6h-275.2v-96h275.2v-185.6zM640 57.6c0-32-25.6-57.6-57.6-57.6h-460.8c-32 0-57.6 25.6-57.6 57.6v780.8c0 32 25.6 57.6 57.6 57.6h460.8c32 0 57.6-25.6 57.6-57.6v-246.4h64v246.4c0 67.2-54.4 121.6-121.6 121.6h-460.8c-67.2 0-121.6-54.4-121.6-121.6v-780.8c0-67.2 54.4-121.6 121.6-121.6h460.8c67.2 0 121.6 54.4 121.6 121.6v246.4h-64v-246.4z" />
<glyph unicode="&#xe609;" glyph-name="edit" d="M960 390.4v-358.4c0-19.2-12.8-32-32-32h-832c-19.2 0-32 12.8-32 32v832c0 19.2 12.8 32 32 32h348.8l32 64h-380.8c-54.4 0-96-44.8-96-96v-832c0-54.4 41.6-96 96-96h832c54.4 0 96 41.6 96 96v390.4l-64-32zM924.8 595.2l67.2 67.2c32 32 32 86.4 0 118.4l-153.6 153.6c-32 32-86.4 32-118.4 0l-67.2-67.2 272-272zM633.6 848l-406.4-406.4 281.6-281.6c51.2 54.4 297.6 313.6 396.8 416l-272 272zM214.4 412.8l-64-329.6 332.8 64z" />
<glyph unicode="&#xe60a;" glyph-name="camera-o" d="M963.2 713.6c0 0-140.8 0-185.6 0-57.6 0-83.2 121.6-144 121.6h-246.4c-60.8 0-83.2-121.6-144-121.6-16 0-44.8 0-73.6 0v28.8c0 19.2-12.8 32-32 32h-35.2c-19.2 0-32-12.8-32-32v-28.8c-6.4 0-9.6 0-9.6 0-32 0-60.8-25.6-60.8-60.8v-531.2c0-35.2 28.8-60.8 60.8-60.8h899.2c35.2 0 60.8 28.8 60.8 60.8v531.2c3.2 35.2-25.6 60.8-57.6 60.8zM960 121.6h-896v528h182.4c64 0 99.2 51.2 124.8 89.6 6.4 9.6 19.2 28.8 25.6 35.2h233.6c6.4-6.4 19.2-22.4 25.6-35.2 25.6-38.4 60.8-89.6 124.8-89.6h179.2v-528zM512 595.2c-105.6 0-188.8-83.2-188.8-188.8s83.2-188.8 188.8-188.8c105.6 0 188.8 83.2 188.8 188.8s-83.2 188.8-188.8 188.8zM512 281.6c-70.4 0-124.8 57.6-124.8 124.8s57.6 124.8 124.8 124.8c70.4 0 124.8-57.6 124.8-124.8s-54.4-124.8-124.8-124.8z" />
<glyph unicode="&#xe60b;" glyph-name="camera" d="M512 563.2c-83.2 0-153.6-67.2-153.6-153.6s70.4-153.6 153.6-153.6c83.2 0 153.6 67.2 153.6 153.6s-70.4 153.6-153.6 153.6zM963.2 716.8c0 0-140.8 0-185.6 0-57.6 0-83.2 121.6-144 121.6h-246.4c-60.8 0-83.2-121.6-144-121.6-16 0-44.8 0-73.6 0v28.8c0 19.2-12.8 32-32 32h-35.2c-19.2 0-32-12.8-32-32v-28.8c-6.4 0-9.6 0-9.6 0-32 0-60.8-28.8-60.8-64v-531.2c0-35.2 28.8-60.8 60.8-60.8h899.2c35.2 0 60.8 28.8 60.8 60.8v531.2c3.2 35.2-25.6 64-57.6 64zM512 214.4c-105.6 0-195.2 86.4-195.2 195.2s86.4 195.2 195.2 195.2c105.6 0 195.2-86.4 195.2-195.2s-89.6-195.2-195.2-195.2z" />
<glyph unicode="&#xe60c;" glyph-name="redo" d="M438.4 700.8h374.4l-172.8 176c-19.2 19.2-19.2 51.2 0 70.4s51.2 19.2 70.4 0l230.4-230.4c38.4-38.4 38.4-99.2 0-134.4l-230.4-230.4c-9.6-9.6-22.4-16-35.2-16s-25.6 6.4-35.2 16c-19.2 19.2-19.2 51.2 0 70.4l182.4 182.4h-384c-156.8 0-284.8-128-284.8-284.8s128-284.8 284.8-284.8c28.8 0 48-22.4 48-48 0-28.8-22.4-48-48-48-211.2 0-384 172.8-384 384 3.2 208 172.8 377.6 384 377.6z" />
<glyph unicode="&#xe60d;" glyph-name="undo" d="M585.6 700.8h-374.4l172.8 176c19.2 19.2 19.2 51.2 0 70.4s-51.2 19.2-70.4 0l-230.4-230.4c-38.4-38.4-38.4-99.2 0-134.4l230.4-230.4c9.6-9.6 22.4-16 35.2-16s25.6 6.4 35.2 16c19.2 19.2 19.2 51.2 0 70.4l-182.4 182.4h384c156.8 0 284.8-128 284.8-284.8s-128-284.8-284.8-284.8c-28.8 0-48-22.4-48-48 0-28.8 22.4-48 48-48 211.2 0 384 172.8 384 384-3.2 208-172.8 377.6-384 377.6z" />
<glyph unicode="&#xe60e;" glyph-name="save" d="M832 960h-134.4v-316.8h-448v316.8h-57.6c-105.6 0-192-86.4-192-192v-640c0-105.6 86.4-192 192-192h640c105.6 0 192 86.4 192 192v640l-192 192zM768 160h-512v384h512v-384zM352 438.4h320v-64h-320v64zM352 329.6h320v-64h-320v64zM464 960h160v-192h-160v192z" />
<glyph unicode="&#xe60f;" glyph-name="doctor" d="M752 371.2h-92.8c0-76.8-57.6-137.6-131.2-147.2v-80c0-60.8 48-108.8 108.8-108.8s108.8 48 108.8 108.8v38.4c-32 6.4-57.6 35.2-57.6 70.4 0 38.4 32 70.4 70.4 70.4s70.4-32 70.4-70.4c0-32-19.2-57.6-48-67.2v-38.4c0-80-64-144-144-144s-144 64-144 144v76.8c-73.6 9.6-131.2 70.4-131.2 147.2h-89.6c-115.2 0-208-96-208-211.2v-118.4c0-32 22.4-60.8 54.4-67.2 259.2-54.4 528-54.4 790.4 0v0c32 6.4 54.4 35.2 54.4 67.2v118.4c-3.2 115.2-96 211.2-211.2 211.2zM310.4 128h-41.6v-41.6h-35.2v41.6h-41.6v35.2h41.6v41.6h35.2v-41.6h41.6v-35.2zM796.8 249.6c0-19.44-15.76-35.2-35.2-35.2s-35.2 15.76-35.2 35.2c0 19.44 15.76 35.2 35.2 35.2s35.2-15.76 35.2-35.2zM294.4 620.8c3.2-9.6 12.8-19.2 22.4-19.2l6.4-28.8c12.8-51.2 41.6-89.6 76.8-118.4v-83.2c0-64 51.2-112 112-112s112 51.2 112 112v73.6c44.8 28.8 80 73.6 92.8 128l6.4 28.8c9.6 0 19.2 6.4 22.4 19.2l16 51.2c3.2 16-3.2 32-19.2 35.2 3.2 131.2-83.2 252.8-224 252.8s-227.2-124.8-224-252.8c-12.8-3.2-22.4-19.2-16-35.2l16-51.2z" />
<glyph unicode="&#xe610;" glyph-name="clock" d="M512 960c-281.6 0-512-230.4-512-512s230.4-512 512-512c281.6 0 512 230.4 512 512s-230.4 512-512 512zM108.8 416c-16 0-32 12.8-32 32s12.8 32 32 32 32-12.8 32-32-16-32-32-32zM508.8 889.6c16 0 32-12.8 32-32s-12.8-32-32-32-32 12.8-32 32 16 32 32 32zM508.8 6.4c-16 0-32 12.8-32 32 0 16 12.8 32 32 32s32-12.8 32-32c0-16-12.8-32-32-32zM752 208c-6.4-6.4-16-9.6-22.4-9.6s-16 3.2-22.4 9.6l-153.6 153.6c-12.8-6.4-25.6-9.6-41.6-9.6-54.4 0-96 41.6-96 96 0 41.6 25.6 76.8 64 89.6v201.6c0 19.2 12.8 32 32 32s32-12.8 32-32v-201.6c38.4-12.8 64-48 64-89.6 0-12.8-3.2-28.8-9.6-41.6l153.6-153.6c12.8-12.8 12.8-32 0-44.8zM918.4 416c-16 0-32 12.8-32 32s12.8 32 32 32 32-12.8 32-32-12.8-32-32-32z" />
<glyph unicode="&#xe611;" glyph-name="clock-o" d="M512 960c-281.6 0-512-230.4-512-512s230.4-512 512-512c281.6 0 512 230.4 512 512s-230.4 512-512 512zM512 0c-246.4 0-448 201.6-448 448s201.6 448 448 448 448-201.6 448-448c0-246.4-201.6-448-448-448zM598.4 406.4c6.4 12.8 9.6 25.6 9.6 41.6 0 41.6-25.6 76.8-64 89.6v201.6c0 19.2-12.8 32-32 32s-32-12.8-32-32v-201.6c-38.4-12.8-64-48-64-89.6 0-54.4 41.6-96 96-96 16 0 28.8 3.2 41.6 9.6l153.6-153.6c6.4-6.4 16-9.6 22.4-9.6s16 3.2 22.4 9.6c12.8 12.8 12.8 32 0 44.8l-153.6 153.6zM540.8 857.6c0-17.673-14.327-32-32-32s-32 14.327-32 32c0 17.673 14.327 32 32 32s32-14.327 32-32zM540.8 38.4c0-17.673-14.327-32-32-32s-32 14.327-32 32c0 17.673 14.327 32 32 32s32-14.327 32-32zM140.8 448c0-17.673-14.327-32-32-32s-32 14.327-32 32c0 17.673 14.327 32 32 32s32-14.327 32-32zM950.4 448c0-17.673-14.327-32-32-32s-32 14.327-32 32c0 17.673 14.327 32 32 32s32-14.327 32-32z" />
<glyph unicode="&#xe624;" glyph-name="font" d="M6.4-38.4l-6.4 6.4v35.2l6.4 6.4c32 0 54.4 3.2 64 6.4s19.2 9.6 25.6 19.2c6.4 9.6 22.4 38.4 44.8 86.4l70.4 153.6 185.6 419.2c35.2 83.2 70.4 163.2 102.4 246.4h44.8l288-681.6 38.4-89.6c12.8-25.6 25.6-54.4 38.4-83.2 16-28.8 25.6-48 32-54.4s12.8-9.6 22.4-12.8c9.6-3.2 25.6-3.2 54.4-6.4l6.4-6.4v-38.4l-6.4-6.4c-48 3.2-89.6 6.4-128 6.4-73.6-3.2-150.4-3.2-224-6.4l-6.4 6.4v35.2l6.4 6.4c51.2 0 83.2 3.2 96 6.4s19.2 9.6 19.2 22.4c0 9.6-3.2 22.4-9.6 38.4l-83.2 208h-396.8l-73.6-172.8c-12.8-32-19.2-54.4-19.2-67.2s6.4-19.2 19.2-25.6c12.8-6.4 41.6-9.6 92.8-9.6l6.4-6.4v-35.2l-6.4-6.4c-57.6 3.2-108.8 6.4-153.6 6.4-51.2 0-99.2-3.2-150.4-6.4zM316.8 342.4h342.4l-169.6 409.6-172.8-409.6z" />
<glyph unicode="&#xe62a;" glyph-name="bell-o" d="M515.2 896c28.8 0 51.2-22.4 51.2-51.2v-64l41.6-16c118.4-41.6 198.4-153.6 198.4-281.6v-259.2l32-19.2c32-19.2 57.6-51.2 73.6-86.4h-345.6v-64c0-32-25.6-54.4-54.4-54.4v0c-32 0-54.4 25.6-54.4 54.4v64h-348.8c12.8 35.2 38.4 64 73.6 86.4l32 19.2v259.2c0 124.8 80 236.8 198.4 281.6l41.6 16v64c0 28.8 25.6 51.2 54.4 51.2h6.4zM515.2 960h-6.4c-64 0-115.2-51.2-115.2-115.2v-19.2c-140.8-51.2-243.2-185.6-243.2-342.4v-224c-60.8-38.4-105.6-102.4-115.2-176-3.2-12.8 9.6-25.6 22.4-25.6h332.8c0-67.2 54.4-118.4 118.4-118.4h3.2c67.2 0 118.4 54.4 118.4 118.4h332.8c12.8 0 25.6 12.8 22.4 25.6-9.6 76.8-54.4 140.8-115.2 176v224c0 156.8-99.2 291.2-240 339.2v22.4c3.2 64-51.2 115.2-115.2 115.2v0z" />
<glyph unicode="&#xe62b;" glyph-name="bell" d="M873.6 259.2v224c0 156.8-99.2 291.2-240 339.2v22.4c0 64-51.2 115.2-115.2 115.2h-6.4c-64 0-115.2-51.2-115.2-115.2v-19.2c-144-51.2-246.4-185.6-246.4-342.4v-224c-60.8-38.4-105.6-102.4-115.2-176-3.2-12.8 9.6-25.6 22.4-25.6h332.8c0-67.2 54.4-118.4 118.4-118.4h3.2c67.2 0 118.4 54.4 118.4 118.4h332.8c12.8 0 25.6 12.8 22.4 25.6-6.4 73.6-51.2 140.8-112 176z" />
<glyph unicode="&#xe62e;" glyph-name="arrow-down" d="M192 582.4c0 9.6 3.2 16 9.6 22.4 12.8 12.8 32 12.8 44.8 0l252.8-252.8c6.4-6.4 19.2-6.4 25.6 0l252.8 252.8c12.8 12.8 32 12.8 44.8 0s12.8-32 0-44.8l-252.8-252.8c-32-32-83.2-32-118.4 0l-252.8 252.8c-3.2 6.4-6.4 12.8-6.4 22.4z" />
<glyph unicode="&#xe62f;" glyph-name="arrow-left" d="M646.4 768c9.6 0 16-3.2 22.4-9.6 12.8-12.8 12.8-32 0-44.8l-252.8-252.8c-6.4-6.4-6.4-19.2 0-25.6l252.8-252.8c12.8-12.8 12.8-32 0-44.8s-32-12.8-44.8 0l-252.8 252.8c-32 32-32 83.2 0 118.4l252.8 252.8c6.4 3.2 12.8 6.4 22.4 6.4z" />
<glyph unicode="&#xe630;" glyph-name="arrow-right" d="M377.6 128c-9.6 0-16 3.2-22.4 9.6-12.8 12.8-12.8 32 0 44.8l252.8 252.8c6.4 6.4 6.4 19.2 0 25.6l-252.8 252.8c-12.8 12.8-12.8 32 0 44.8s32 12.8 44.8 0l252.8-252.8c32-32 32-83.2 0-118.4l-252.8-252.8c-6.4-3.2-12.8-6.4-22.4-6.4z" />
<glyph unicode="&#xe631;" glyph-name="arrow-up" d="M832 313.6c0-9.6-3.2-16-9.6-22.4-12.8-12.8-32-12.8-44.8 0l-252.8 252.8c-6.4 6.4-19.2 6.4-25.6 0l-252.8-252.8c-12.8-12.8-32-12.8-44.8 0s-12.8 32 0 44.8l252.8 252.8c32 32 83.2 32 118.4 0l252.8-252.8c3.2-6.4 6.4-12.8 6.4-22.4z" />
<glyph unicode="&#xe635;" glyph-name="bullhorn-o" d="M1030.4 448c0 83.2-57.6 153.6-134.4 172.8v265.6c0 41.6-32 73.6-73.6 73.6-22.4 0-44.8-9.6-57.6-28.8l-118.4-147.2c-41.6-51.2-163.2-124.8-208-147.2-25.6-9.6-54.4-16-80-16h-169.6c-102.4 0-185.6-83.2-185.6-188.8 0-99.2 76.8-179.2 169.6-185.6l67.2-288h188.8l-67.2 284.8h12.8c22.4 0 44.8-3.2 64-9.6 86.4-25.6 163.2-76.8 220.8-147.2l105.6-128c12.8-16 35.2-25.6 57.6-25.6v0c41.6 0 73.6 32 73.6 73.6v262.4c76.8 25.6 134.4 96 134.4 179.2zM284.8 22.4l-48 214.4h57.6l48-214.4h-57.6zM185.6 310.4c-67.2 0-124.8 54.4-124.8 124.8s54.4 124.8 124.8 124.8h169.6c22.4 0 41.6 3.2 64 6.4v-256c-16 3.2-28.8 3.2-44.8 3.2h-188.8zM832 9.6c0-6.4-3.2-9.6-9.6-9.6v0c-3.2 0-6.4 0-9.6 3.2l-105.6 128c-60.8 70.4-137.6 124.8-227.2 156.8v297.6c44.8 25.6 166.4 96 214.4 156.8l118.4 147.2c3.2 6.4 6.4 6.4 9.6 6.4 6.4 0 9.6-3.2 9.6-9.6v-876.8zM896 342.4v214.4c41.6-16 70.4-57.6 70.4-105.6s-28.8-92.8-70.4-108.8z" />
<glyph unicode="&#xe637;" glyph-name="bullhorn" d="M1030.4 448c0 83.2-57.6 153.6-134.4 172.8v265.6c0 41.6-32 73.6-73.6 73.6-22.4 0-44.8-9.6-57.6-28.8l-118.4-147.2c-41.6-51.2-163.2-124.8-208-147.2-25.6-9.6-54.4-16-80-16h-169.6c-102.4 0-185.6-83.2-185.6-188.8 0-99.2 76.8-179.2 169.6-185.6l67.2-288h188.8l-67.2 284.8h12.8c22.4 0 44.8-3.2 64-9.6 86.4-25.6 163.2-76.8 220.8-147.2l105.6-128c12.8-16 35.2-25.6 57.6-25.6v0c41.6 0 73.6 32 73.6 73.6v262.4c76.8 25.6 134.4 96 134.4 179.2z" />
<glyph unicode="&#xe639;" glyph-name="cog" d="M947.2 540.8l-54.4 12.8c-9.6 32-22.4 60.8-38.4 89.6l28.8 48c12.8 22.4 9.6 54.4-9.6 73.6l-48 48c-19.2 19.2-48 22.4-73.6 9.6l-48-28.8c-28.8 16-57.6 28.8-89.6 38.4l-12.8 54.4c-6.4 25.6-32 44.8-57.6 44.8h-67.2c-28.8 0-51.2-19.2-57.6-44.8l-12.8-54.4c-32-9.6-60.8-22.4-89.6-38.4l-48 25.6c-22.4 16-51.2 12.8-73.6-6.4l-48-48c-19.2-22.4-22.4-51.2-6.4-73.6l28.8-48c-16-28.8-28.8-57.6-38.4-89.6l-54.4-12.8c-25.6-6.4-44.8-32-44.8-57.6v-67.2c0-28.8 19.2-51.2 44.8-57.6l54.4-12.8c9.6-32 22.4-60.8 38.4-89.6l-28.8-48c-12.8-22.4-9.6-54.4 9.6-73.6l48-48c19.2-19.2 51.2-22.4 73.6-9.6l48 28.8c28.8-16 57.6-28.8 89.6-38.4l12.8-54.4c6.4-25.6 32-44.8 57.6-44.8h67.2c28.8 0 51.2 19.2 57.6 44.8l12.8 54.4c32 9.6 60.8 22.4 89.6 38.4l48-28.8c22.4-12.8 54.4-9.6 73.6 9.6l48 48c19.2 19.2 22.4 51.2 9.6 73.6l-28.8 48c16 28.8 28.8 57.6 38.4 89.6l54.4 12.8c25.6 6.4 44.8 32 44.8 57.6v67.2c-3.2 25.6-22.4 51.2-48 57.6zM928 416l-86.4-22.4-3.2-19.2c-9.6-38.4-22.4-73.6-44.8-105.6l-9.6-16 48-76.8-44.8-44.8-76.8 48-16-9.6c-32-19.2-67.2-35.2-105.6-44.8l-19.2-3.2-25.6-89.6h-64l-22.4 86.4-19.2 3.2c-38.4 9.6-73.6 22.4-105.6 44.8l-16 9.6-76.8-48-44.8 44.8 48 76.8-9.6 16c-19.2 32-35.2 67.2-44.8 105.6l-3.2 19.2-89.6 25.6v64l86.4 22.4 3.2 19.2c9.6 38.4 22.4 73.6 44.8 105.6l9.6 16-44.8 76.8 44.8 44.8 76.8-48 16 9.6c32 19.2 67.2 35.2 105.6 44.8l19.2 3.2 22.4 89.6h64l22.4-86.4 19.2-3.2c38.4-9.6 73.6-22.4 105.6-44.8l16-9.6 76.8 48 44.8-44.8-48-76.8 9.6-16c19.2-32 35.2-67.2 44.8-105.6l3.2-19.2 89.6-25.6v-64zM512 598.4c-83.2 0-153.6-67.2-153.6-153.6s67.2-153.6 153.6-153.6 153.6 67.2 153.6 153.6-70.4 153.6-153.6 153.6zM512 358.4c-48 0-89.6 38.4-89.6 89.6s38.4 89.6 89.6 89.6 89.6-38.4 89.6-89.6-41.6-89.6-89.6-89.6z" />
<glyph unicode="&#xe63b;" glyph-name="comments" d="M880 851.2h-736c-80 0-144-70.4-144-156.8v-412.8c0-86.4 64-153.6 144-153.6h204.8l118.4-128c12.8-12.8 28.8-19.2 44.8-19.2s32 6.4 44.8 19.2l118.4 128h204.8c80 0 144 70.4 144 156.8v409.6c0 86.4-64 156.8-144 156.8zM291.2 448c-32 0-60.8 25.6-60.8 60.8 0 32 25.6 60.8 60.8 60.8s60.8-25.6 60.8-60.8c0-32-28.8-60.8-60.8-60.8zM512 448c-32 0-60.8 25.6-60.8 60.8 0 32 25.6 60.8 60.8 60.8s60.8-25.6 60.8-60.8c0-32-28.8-60.8-60.8-60.8zM732.8 448c-32 0-60.8 25.6-60.8 60.8 0 32 25.6 60.8 60.8 60.8 32 0 60.8-25.6 60.8-60.8 0-32-28.8-60.8-60.8-60.8z" />
<glyph unicode="&#xe63c;" glyph-name="comments-o" d="M880 851.2h-736c-80 0-144-70.4-144-156.8v-412.8c0-86.4 64-153.6 144-153.6h204.8l118.4-128c12.8-12.8 28.8-19.2 44.8-19.2s32 6.4 44.8 19.2l118.4 128h204.8c80 0 144 70.4 144 156.8v409.6c0 86.4-64 156.8-144 156.8zM960 281.6c0-51.2-35.2-92.8-80-92.8h-233.6l-19.2-19.2-118.4-128-118.4 128-16 22.4h-230.4c-44.8 0-80 41.6-80 89.6v412.8c0 51.2 35.2 92.8 80 92.8h736c44.8 0 80-41.6 80-92.8v-412.8zM352 508.8c0-33.579-27.221-60.8-60.8-60.8s-60.8 27.221-60.8 60.8c0 33.579 27.221 60.8 60.8 60.8s60.8-27.221 60.8-60.8zM572.8 508.8c0-33.579-27.221-60.8-60.8-60.8s-60.8 27.221-60.8 60.8c0 33.579 27.221 60.8 60.8 60.8s60.8-27.221 60.8-60.8zM793.6 508.8c0-33.579-27.221-60.8-60.8-60.8s-60.8 27.221-60.8 60.8c0 33.579 27.221 60.8 60.8 60.8s60.8-27.221 60.8-60.8z" />
<glyph unicode="&#xe63f;" glyph-name="envelope" d="M25.6 768v0l6.4-9.6zM380.8 499.2c70.4-70.4 188.8-70.4 259.2 0l313.6 310.4c0 0 0 0 0 0v0c-22.4 12.8-48 22.4-73.6 22.4h-736c-32 0-67.2-19.2-73.6-19.2l310.4-313.6zM969.6 736v0l-284.8-281.6c-44.8-48-108.8-70.4-172.8-70.4s-128 22.4-176 70.4l-310.4 313.6c-3.2-6.4-25.6-44.8-25.6-80v-476.8c0-83.2 64-147.2 144-147.2h732.8c80 0 144 64 144 144v480c0 28.8-9.6 54.4-22.4 76.8l-28.8-28.8z" />
<glyph unicode="&#xe640;" glyph-name="envelope-o" d="M1001.6 764.8c-12.8 19.2-28.8 32-44.8 44.8-25.6 12.8-51.2 22.4-76.8 22.4h-736c-25.6 0-51.2-6.4-73.6-19.2-16-12.8-35.2-25.6-44.8-44.8-16-22.4-25.6-51.2-25.6-80v-476.8c0-83.2 64-147.2 144-147.2h732.8c80 0 144 64 144 144v480c3.2 28.8-6.4 54.4-19.2 76.8zM144 768h732.8c9.6 0 19.2-3.2 28.8-6.4l-265.6-262.4c-70.4-70.4-188.8-70.4-259.2 0l-262.4 265.6c9.6 0 19.2 3.2 25.6 3.2zM960 208c0-44.8-35.2-80-80-80h-736c-44.8 0-80 35.2-80 80v480c0 12.8 3.2 22.4 6.4 35.2l265.6-265.6c48-51.2 112-73.6 176-73.6s128 22.4 176 70.4l265.6 262.4c3.2-9.6 6.4-19.2 6.4-32v-476.8z" />
<glyph unicode="&#xe644;" glyph-name="file" d="M665.6 960h-409.6c-54.4 0-96-41.6-96-96v-832c0-54.4 41.6-96 96-96h608c54.4 0 96 41.6 96 96v630.4l-294.4 297.6zM896 32c0-19.2-12.8-32-32-32h-608c-19.2 0-32 12.8-32 32v832c0 19.2 12.8 32 32 32h371.2l-19.2-192c0-54.4 41.6-96 96-96l192 16v-592zM348.8 489.6c0-19.2 12.8-32 32-32h352c19.2 0 32 12.8 32 32s-12.8 32-32 32h-352c-16 0-32-12.8-32-32zM736 371.2h-352c-19.2 0-32-12.8-32-32s12.8-32 32-32h352c19.2 0 32 12.8 32 32s-12.8 32-32 32zM736 217.6h-352c-19.2 0-32-12.8-32-32s12.8-32 32-32h352c19.2 0 32 12.8 32 32s-12.8 32-32 32z" />
<glyph unicode="&#xe647;" glyph-name="home" d="M1014.4 435.2l-406.4 406.4c-54.4 54.4-140.8 54.4-192 0l-406.4-406.4c-19.2-19.2-6.4-48 19.2-48h144v-371.2h288v115.2c0 41.6 35.2 76.8 76.8 76.8v0c41.6 0 76.8-35.2 76.8-76.8v-115.2h240v371.2h140.8c25.6 0 38.4 28.8 19.2 48z" />
<glyph unicode="&#xe648;" glyph-name="home-o" d="M1017.6 428.8l-406.4 406.4c-25.6 25.6-60.8 41.6-96 41.6s-70.4-12.8-96-41.6l-409.6-406.4c-19.2-19.2-6.4-48 19.2-48h144v-371.2h288v115.2c0 41.6 35.2 76.8 76.8 76.8s76.8-35.2 76.8-76.8v-115.2h240v371.2h140.8c25.6 0 38.4 28.8 22.4 48zM854.4 444.8h-64v-371.2h-112v51.2c0 76.8-64 140.8-140.8 140.8s-140.8-64-140.8-140.8v-51.2h-160v371.2h-121.6l345.6 345.6c12.8 12.8 32 22.4 51.2 22.4s38.4-6.4 51.2-22.4l345.6-345.6h-54.4z" />
<glyph unicode="&#xe649;" glyph-name="image" d="M841.6 896h-659.2c-99.2 0-182.4-83.2-182.4-182.4v-534.4c0-96 83.2-179.2 182.4-179.2h662.4c99.2 0 182.4 83.2 182.4 182.4v531.2c-3.2 99.2-86.4 182.4-185.6 182.4zM515.2 704c16 0 32-12.8 32-32 0-16-12.8-32-32-32-16 0-32 12.8-32 32 3.2 19.2 16 32 32 32zM291.2 761.6c48 0 89.6-38.4 89.6-89.6 0-48-38.4-89.6-89.6-89.6-48 0-89.6 38.4-89.6 89.6s41.6 89.6 89.6 89.6zM214.4 489.6c19.2 0 32-16 32-32s-16-32-32-32c-19.2 0-32 16-32 32s12.8 32 32 32zM960 182.4c0-64-51.2-118.4-118.4-118.4h-659.2c-57.6 0-105.6 41.6-115.2 96l60.8 73.6c38.4 38.4 96 51.2 147.2 32l32-12.8c76.8-32 166.4-12.8 220.8 48l73.6 76.8c41.6 44.8 112 57.6 166.4 25.6l195.2-112v-108.8z" />
<glyph unicode="&#xe64a;" glyph-name="image-o" d="M841.6 896h-659.2c-99.2 0-182.4-83.2-182.4-182.4v-534.4c0-96 83.2-179.2 182.4-179.2h662.4c99.2 0 182.4 83.2 182.4 182.4v531.2c-3.2 99.2-86.4 182.4-185.6 182.4zM182.4 832h662.4c64 0 118.4-51.2 118.4-118.4v-348.8l-163.2 92.8c-80 44.8-179.2 28.8-243.2-38.4l-76.8-76.8c-38.4-41.6-99.2-54.4-150.4-32l-32 12.8c-76.8 32-160 12.8-220.8-48l-12.8-16v454.4c0 67.2 51.2 118.4 118.4 118.4zM841.6 64h-659.2c-57.6 0-105.6 41.6-115.2 96l60.8 73.6c38.4 38.4 96 51.2 147.2 32l32-12.8c76.8-32 166.4-12.8 220.8 48l73.6 76.8c41.6 44.8 112 57.6 166.4 25.6l195.2-112v-112c-3.2-64-54.4-115.2-121.6-115.2zM547.2 672c0-17.673-14.327-32-32-32s-32 14.327-32 32c0 17.673 14.327 32 32 32s32-14.327 32-32zM380.8 672c0-49.485-40.115-89.6-89.6-89.6s-89.6 40.115-89.6 89.6c0 49.485 40.115 89.6 89.6 89.6s89.6-40.115 89.6-89.6zM246.4 457.6c0-17.673-14.327-32-32-32s-32 14.327-32 32c0 17.673 14.327 32 32 32s32-14.327 32-32z" />
<glyph unicode="&#xe64b;" glyph-name="info" d="M512 960c-281.6 0-512-230.4-512-512s230.4-512 512-512 512 230.4 512 512-230.4 512-512 512zM512 761.6c41.6 0 73.6-32 73.6-73.6s-32-73.6-73.6-73.6-73.6 32-73.6 73.6 32 73.6 73.6 73.6zM614.4 131.2h-204.8v25.6h51.2v384h-51.2v25.6h153.6v-409.6h51.2v-25.6z" />
<glyph unicode="&#xe64c;" glyph-name="info-o" d="M512 960c-281.6 0-512-230.4-512-512s230.4-512 512-512 512 230.4 512 512-230.4 512-512 512zM512 0c-246.4 0-448 201.6-448 448s201.6 448 448 448 448-201.6 448-448c0-246.4-201.6-448-448-448zM563.2 566.4h-153.6v-25.6h51.2v-384h-51.2v-25.6h204.8v25.6h-51.2zM585.6 688c0-40.648-32.952-73.6-73.6-73.6s-73.6 32.952-73.6 73.6c0 40.648 32.952 73.6 73.6 73.6s73.6-32.952 73.6-73.6z" />
<glyph unicode="&#xe64d;" glyph-name="key" d="M1008 921.6l-22.4 22.4c-12.8 12.8-28.8 19.2-44.8 19.2s-32-6.4-44.8-19.2l-83.2-80-32 32c-22.4 22.4-60.8 22.4-83.2 0s-22.4-60.8 0-83.2l32-32-51.2-51.2-32 32c-22.4 22.4-60.8 22.4-83.2 0s-22.4-60.8 0-83.2l32-32-102.4-102.4c-51.2 28.8-108.8 44.8-166.4 44.8-83.2 0-166.4-32-230.4-96-128-128-128-336 0-460.8 64-64 147.2-96 230.4-96s166.4 32 230.4 96c108.8 108.8 124.8 272 51.2 396.8l400 400c25.6 25.6 25.6 67.2 0 92.8zM336 121.6c-41.6-41.6-108.8-41.6-150.4 0s-41.6 108.8 0 150.4c41.6 41.6 108.8 41.6 150.4 0s41.6-108.8 0-150.4z" />
<glyph unicode="&#xe64e;" glyph-name="key-o" d="M1008 921.6l-22.4 22.4c-12.8 12.8-28.8 19.2-44.8 19.2s-32-6.4-44.8-19.2l-83.2-80-32 32c-22.4 22.4-60.8 22.4-83.2 0s-22.4-60.8 0-83.2l32-32-51.2-51.2-32 32c-22.4 22.4-60.8 22.4-83.2 0s-22.4-60.8 0-83.2l32-32-102.4-102.4c-51.2 28.8-108.8 44.8-166.4 44.8-83.2 0-166.4-32-230.4-96-128-128-128-336 0-460.8 64-64 147.2-96 230.4-96s166.4 32 230.4 96c108.8 108.8 124.8 272 51.2 396.8l400 400c25.6 25.6 25.6 67.2 0 92.8zM508.8 73.6c-51.2-51.2-115.2-76.8-185.6-76.8s-137.6 28.8-185.6 76.8c-102.4 102.4-102.4 268.8 0 371.2 51.2 51.2 115.2 76.8 185.6 76.8s137.6-28.8 185.6-76.8c102.4-102.4 102.4-268.8 0-371.2zM963.2 873.6l-371.2-371.2-25.6 25.6 371.2 371.2c0 0 0 0 0 0v0l25.6-25.6c0 3.2 0 0 0 0zM364.8 195.2c0-58.321-47.279-105.6-105.6-105.6s-105.6 47.279-105.6 105.6c0 58.321 47.279 105.6 105.6 105.6s105.6-47.279 105.6-105.6z" />
<glyph unicode="&#xe64f;" glyph-name="label" d="M1004.8 796.8c0 80-64 144-144 144 0 0 0 0 0 0l-259.2 19.2c-38.4 0-73.6-16-102.4-41.6l-454.4-454.4c-57.6-57.6-57.6-147.2 0-204.8l268.8-268.8c32-32 83.2-51.2 131.2-51.2 35.2 0 67.2 9.6 92.8 35.2l441.6 441.6c25.6 25.6 41.6 64 41.6 102.4l-16 278.4zM806.4 540.8c-25.6-67.2-86.4-102.4-144-102.4s-118.4 35.2-144 102.4c-12.8 32-12.8 67.2 0 96 25.6 67.2 86.4 102.4 144 102.4s118.4-35.2 144-102.4c9.6-28.8 9.6-64 0-96zM662.4 675.2c-38.4 0-70.4-22.4-86.4-60.8-6.4-16-6.4-35.2 0-51.2 16-38.4 48-60.8 86.4-60.8s70.4 22.4 86.4 60.8c6.4 16 6.4 35.2 0 51.2-19.2 38.4-51.2 60.8-86.4 60.8z" />
<glyph unicode="&#xe650;" glyph-name="label-o" d="M1004.8 796.8c0 80-64 144-144 144 0 0 0 0 0 0l-259.2 19.2c-38.4 0-73.6-16-102.4-41.6l-454.4-454.4c-57.6-57.6-57.6-147.2 0-204.8l268.8-268.8c32-32 83.2-51.2 131.2-51.2 35.2 0 67.2 9.6 92.8 35.2l441.6 441.6c25.6 25.6 41.6 64 41.6 102.4l-16 278.4zM934.4 460.8l-444.8-444.8c-12.8-12.8-35.2-16-48-16-32 0-64 12.8-86.4 35.2l-268.8 268.8c-32 32-32 83.2 0 115.2l457.6 454.4c12.8 12.8 32 22.4 54.4 22.4l262.4-16c44.8 0 80-35.2 80-80v-6.4l19.2-278.4c0-19.2-9.6-38.4-25.6-54.4zM662.4 739.2c-57.6 0-118.4-35.2-144-102.4-12.8-32-12.8-67.2 0-96 25.6-67.2 86.4-102.4 144-102.4s118.4 35.2 144 102.4c12.8 32 12.8 67.2 0 96-28.8 70.4-86.4 102.4-144 102.4zM745.6 563.2c-16-38.4-48-60.8-86.4-60.8s-70.4 22.4-86.4 60.8c-6.4 16-6.4 35.2 0 51.2 16 38.4 48 60.8 86.4 60.8s70.4-22.4 86.4-60.8c6.4-16 6.4-35.2 0-51.2z" />
<glyph unicode="&#xe651;" glyph-name="light" d="M675.2 816c3.2-3.2 6.4-3.2 9.6-3.2 6.4 0 16 3.2 19.2 9.6l32 54.4c6.4 9.6 3.2 22.4-6.4 28.8-12.8 3.2-25.6 0-32-9.6l-28.8-51.2c-6.4-9.6-3.2-22.4 6.4-28.8zM835.2 684.8l51.2 28.8c9.6 6.4 12.8 19.2 6.4 28.8s-19.2 12.8-28.8 6.4l-51.2-28.8c-9.6-3.2-12.8-16-6.4-28.8 3.2-6.4 9.6-9.6 19.2-9.6 0 0 6.4 0 9.6 3.2zM188.8 342.4l-51.2-28.8c-9.6-6.4-12.8-19.2-6.4-28.8 3.2-6.4 9.6-9.6 19.2-9.6 3.2 0 6.4 0 9.6 3.2l51.2 28.8c9.6 6.4 12.8 19.2 6.4 28.8-3.2 9.6-16 12.8-28.8 6.4zM937.6 544h-60.8c-12.8 0-22.4-9.6-22.4-22.4s9.6-22.4 22.4-22.4h60.8c12.8 0 22.4 9.6 22.4 22.4-3.2 12.8-9.6 22.4-22.4 22.4zM169.6 505.6c0 12.8-9.6 22.4-22.4 22.4h-60.8c-12.8 0-22.4-9.6-22.4-22.4s9.6-22.4 22.4-22.4h60.8c12.8 0 22.4 9.6 22.4 22.4zM896 326.4l-51.2 28.8c-9.6 6.4-22.4 3.2-28.8-6.4s-3.2-22.4 6.4-28.8l51.2-28.8c3.2-3.2 6.4-3.2 9.6-3.2 6.4 0 16 3.2 19.2 9.6 6.4 9.6 3.2 22.4-6.4 28.8zM128 700.8l51.2-28.8c6.4-3.2 9.6-3.2 12.8-3.2 6.4 0 16 3.2 19.2 9.6 6.4 9.6 3.2 22.4-6.4 28.8l-54.4 28.8c-9.6 6.4-22.4 3.2-28.8-6.4s-3.2-22.4 6.4-28.8zM304 816c3.2-6.4 9.6-9.6 19.2-9.6 3.2 0 6.4 0 9.6 3.2 9.6 6.4 12.8 19.2 6.4 28.8l-28.8 51.2c-6.4 9.6-19.2 12.8-28.8 6.4s-12.8-19.2-6.4-28.8l28.8-51.2zM502.4 857.6c12.8 0 22.4 9.6 22.4 22.4v57.6c0 12.8-9.6 22.4-22.4 22.4s-22.4-9.6-22.4-22.4v-60.8c3.2-9.6 12.8-19.2 22.4-19.2zM588.8-3.2h-156.8c-12.8 0-19.2-16-9.6-25.6 25.6-22.4 54.4-35.2 89.6-35.2s64 12.8 89.6 35.2c9.6 9.6 3.2 25.6-12.8 25.6zM592 140.8h-160c-12.8 0-22.4-9.6-22.4-22.4s9.6-22.4 22.4-22.4h160c12.8 0 22.4 9.6 22.4 22.4s-9.6 22.4-22.4 22.4zM592 70.4h-160c-12.8 0-22.4-9.6-22.4-22.4s9.6-22.4 22.4-22.4h160c12.8 0 22.4 9.6 22.4 22.4s-9.6 22.4-22.4 22.4zM432 512c-19.2 0-32-16-32-32 0-19.2 16-32 32-32h32v32c0 19.2-16 32-32 32zM627.2 480c0 19.2-16 32-32 32-19.2 0-32-16-32-32v-32h32c16 0 32 12.8 32 32zM544 816c-169.6 19.2-313.6-115.2-313.6-281.6 0-89.6 41.6-166.4 105.6-217.6 32-25.6 54.4-60.8 67.2-99.2 6.4-12.8 16-22.4 32-22.4h28.8v220.8h-32c-35.2 0-64 28.8-64 64s28.8 64 64 64 64-28.8 64-64v-284.8h32v284.8c0 35.2 28.8 64 64 64s64-28.8 64-64-28.8-64-64-64h-32v-220.8h28.8c12.8 0 25.6 6.4 32 19.2 19.2 44.8 48 86.4 86.4 118.4 60.8 57.6 96 144 83.2 236.8-12.8 128-118.4 230.4-246.4 246.4z" />
<glyph unicode="&#xe652;" glyph-name="light-o" d="M672 816c3.2-3.2 6.4-3.2 9.6-3.2 6.4 0 16 3.2 19.2 9.6l28.8 51.2c6.4 9.6 3.2 22.4-6.4 28.8s-22.4 3.2-28.8-6.4l-28.8-51.2c-9.6-9.6-3.2-22.4 6.4-28.8zM819.2 684.8c3.2 0 6.4 0 9.6 3.2l51.2 28.8c12.8 6.4 16 19.2 9.6 28.8s-19.2 12.8-28.8 6.4l-51.2-28.8c-12.8-6.4-16-19.2-9.6-28.8 3.2-6.4 9.6-9.6 19.2-9.6zM185.6 345.6l-51.2-28.8c-9.6-6.4-12.8-19.2-6.4-28.8 3.2-6.4 9.6-9.6 19.2-9.6 3.2 0 6.4 0 9.6 3.2l51.2 28.8c9.6 6.4 12.8 19.2 6.4 28.8-6.4 6.4-19.2 9.6-28.8 6.4zM931.2 544h-60.8c-12.8 0-22.4-9.6-22.4-22.4s9.6-22.4 22.4-22.4h60.8c12.8 0 22.4 9.6 22.4 22.4s-9.6 22.4-22.4 22.4zM163.2 505.6c0 12.8-9.6 22.4-22.4 22.4h-57.6c-12.8 0-22.4-9.6-22.4-22.4s9.6-22.4 22.4-22.4h60.8c9.6 3.2 19.2 12.8 19.2 22.4zM889.6 329.6l-51.2 28.8c-9.6 6.4-22.4 3.2-28.8-6.4s-3.2-22.4 6.4-28.8l51.2-28.8c3.2-3.2 6.4-3.2 9.6-3.2 6.4 0 16 3.2 19.2 9.6 6.4 9.6 3.2 22.4-6.4 28.8zM124.8 704l51.2-32c3.2-3.2 6.4-3.2 9.6-3.2 6.4 0 16 3.2 19.2 9.6 6.4 12.8 3.2 25.6-6.4 32l-54.4 28.8c-9.6 6.4-22.4 3.2-28.8-6.4s0-25.6 9.6-28.8zM297.6 816c3.2-6.4 9.6-9.6 19.2-9.6 3.2 0 6.4 0 9.6 3.2 9.6 6.4 12.8 19.2 6.4 28.8l-28.8 51.2c-3.2 9.6-16 12.8-28.8 9.6-9.6-6.4-12.8-19.2-6.4-28.8l28.8-54.4zM499.2 857.6c12.8 0 22.4 9.6 22.4 22.4v60.8c0 12.8-9.6 22.4-22.4 22.4s-22.4-9.6-22.4-22.4v-60.8c0-12.8 9.6-22.4 22.4-22.4zM585.6 0h-156.8c-12.8 0-19.2-16-9.6-25.6 22.4-22.4 54.4-35.2 89.6-35.2s64 12.8 89.6 35.2c6.4 9.6 0 25.6-12.8 25.6zM585.6 140.8h-160c-12.8 0-22.4-9.6-22.4-22.4s9.6-22.4 22.4-22.4h160c12.8 0 22.4 9.6 22.4 22.4s-9.6 22.4-22.4 22.4zM585.6 73.6h-160c-12.8 0-22.4-9.6-22.4-22.4s9.6-22.4 22.4-22.4h160c12.8 0 22.4 9.6 22.4 22.4s-9.6 22.4-22.4 22.4zM819.2 576c-16 140.8-134.4 256-275.2 272-89.6 9.6-179.2-16-246.4-76.8s-105.6-144-105.6-233.6c0-96 41.6-182.4 115.2-243.2 25.6-19.2 44.8-51.2 57.6-86.4 9.6-25.6 35.2-41.6 60.8-41.6h156.8c25.6 0 51.2 16 60.8 38.4 16 41.6 44.8 76.8 80 105.6 73.6 70.4 108.8 166.4 96 265.6zM441.6 464h-16c-9.6 0-16 6.4-16 16s6.4 16 16 16 16-6.4 16-16v-16zM681.6 358.4c-41.6-35.2-76.8-80-99.2-131.2h-12.8v172.8h16c44.8 0 80 35.2 80 80s-35.2 80-80 80c-44.8 0-80-35.2-80-80v0c0 44.8-35.2 80-80 80s-80-35.2-80-80c0-44.8 35.2-80 80-80h16v-172.8h-16c-19.2 48-44.8 86.4-76.8 115.2-57.6 48-92.8 118.4-92.8 195.2 0 70.4 32 137.6 83.2 185.6 48 41.6 105.6 64 166.4 64 9.6 0 19.2 0 28.8-3.2 115.2-12.8 204.8-105.6 220.8-217.6 9.6-76.8-19.2-153.6-73.6-208zM569.6 464v16c0 9.6 6.4 16 16 16s16-6.4 16-16-6.4-16-16-16h-16z" />
<glyph unicode="&#xe657;" glyph-name="lock" d="M880 598.4h-96v121.6c0 131.2-121.6 240-272 240s-272-108.8-272-240v-121.6h-96c-54.4 0-96-41.6-96-96v-470.4c0-54.4 41.6-96 96-96h732.8c54.4 0 96 41.6 96 96v470.4c3.2 51.2-41.6 96-92.8 96zM537.6 262.4v-166.4c0-12.8-12.8-25.6-25.6-25.6s-25.6 12.8-25.6 25.6v166.4c-41.6 12.8-70.4 48-70.4 92.8 0 54.4 44.8 96 96 96s96-44.8 96-96c0-44.8-28.8-80-70.4-92.8zM720 598.4h-416v121.6c0 96 92.8 176 208 176s208-80 208-176v-121.6z" />
<glyph unicode="&#xe658;" glyph-name="lock-o" d="M880 598.4h-96v121.6c0 131.2-121.6 240-272 240s-272-108.8-272-240v-121.6h-96c-54.4 0-96-41.6-96-96v-470.4c0-54.4 41.6-96 96-96h732.8c54.4 0 96 41.6 96 96v470.4c3.2 51.2-41.6 96-92.8 96zM304 720c0 96 92.8 176 208 176s208-80 208-176v-121.6h-416v121.6zM912 32c0-19.2-12.8-32-32-32h-736c-19.2 0-32 12.8-32 32v470.4c0 19.2 12.8 32 32 32h732.8c19.2 0 32-12.8 32-32v-470.4zM512 454.4c-54.4 0-96-44.8-96-96 0-44.8 28.8-83.2 70.4-92.8v-169.6c0-12.8 12.8-25.6 25.6-25.6s25.6 12.8 25.6 25.6v166.4c41.6 12.8 70.4 48 70.4 92.8 0 54.4-41.6 99.2-96 99.2z" />
<glyph unicode="&#xe664;" glyph-name="question" d="M512 960c-281.6 0-512-230.4-512-512s230.4-512 512-512 512 230.4 512 512-230.4 512-512 512zM572.8 163.2h-115.2v108.8h115.2v-108.8zM681.6 486.4c-12.8-19.2-38.4-41.6-70.4-64-19.2-12.8-28.8-25.6-35.2-35.2-6.4-12.8-12.8-35.2-12.8-60.8h-102.4c0 41.6 3.2 70.4 12.8 89.6 9.6 22.4 32 44.8 67.2 70.4 32 22.4 48 48 48 76.8s-9.6 48-25.6 60.8c-12.8 9.6-28.8 16-51.2 16s-41.6-6.4-57.6-19.2c-12.8-12.8-22.4-35.2-25.6-70.4h-108.8c0 60.8 19.2 108.8 60.8 140.8 35.2 25.6 76.8 41.6 124.8 41.6 64 0 112-16 147.2-44.8s51.2-67.2 51.2-121.6c0-32-6.4-57.6-22.4-80z" />
<glyph unicode="&#xe665;" glyph-name="question-o" d="M512 960c-281.6 0-512-230.4-512-512s230.4-512 512-512 512 230.4 512 512-230.4 512-512 512zM512 0c-246.4 0-448 201.6-448 448s201.6 448 448 448 448-201.6 448-448c0-246.4-201.6-448-448-448zM505.6 732.8c-51.2 0-92.8-12.8-124.8-41.6-41.6-32-60.8-80-60.8-140.8h108.8c3.2 32 12.8 57.6 25.6 70.4s32 19.2 57.6 19.2c19.2 0 38.4-6.4 51.2-16 16-12.8 25.6-32 25.6-60.8s-16-54.4-48-76.8c-35.2-25.6-57.6-48-67.2-70.4-9.6-19.2-12.8-48-12.8-89.6h102.4c0 25.6 3.2 44.8 12.8 60.8 6.4 9.6 19.2 22.4 35.2 35.2 32 22.4 57.6 44.8 70.4 64 16 22.4 25.6 48 25.6 80 0 51.2-16 92.8-51.2 121.6-38.4 28.8-86.4 44.8-150.4 44.8zM457.6 275.2h115.2v-108.8h-115.2v108.8z" />
<glyph unicode="&#xe667;" glyph-name="remove" d="M1017.6 864l-89.6 89.6-416-416-416 416-89.6-89.6 416-416-416-416 89.6-89.6 416 416 416-416 89.6 89.6-416 416z" />
<glyph unicode="&#xe66c;" glyph-name="search" d="M1024-19.2l-208 211.2c160 182.4 153.6 460.8-22.4 633.6-92.8 89.6-211.2 134.4-329.6 134.4s-236.8-44.8-326.4-137.6c-182.4-182.4-182.4-476.8 0-656 89.6-89.6 208-137.6 329.6-137.6 108.8 0 217.6 38.4 304 115.2l208-208 44.8 44.8zM464 96c-105.6 0-208 41.6-281.6 118.4s-118.4 172.8-118.4 281.6c0 105.6 41.6 208 118.4 281.6 73.6 76.8 176 118.4 281.6 118.4s208-41.6 281.6-118.4c156.8-156.8 156.8-409.6 0-566.4-73.6-73.6-172.8-115.2-281.6-115.2z" />
<glyph unicode="&#xe66d;" glyph-name="share" d="M902.4 960c-67.2 0-121.6-54.4-121.6-121.6 0-9.6 3.2-19.2 3.2-28.8l-444.8-265.6c-38.4 38.4-89.6 64-150.4 64-102.4 0-188.8-83.2-188.8-188.8s86.4-188.8 188.8-188.8c60.8 0 115.2 28.8 150.4 73.6l217.6-147.2c-6.4-16-9.6-35.2-9.6-54.4 0-89.6 73.6-163.2 163.2-163.2s163.2 73.6 163.2 163.2c0 89.6-73.6 163.2-163.2 163.2-48 0-92.8-22.4-121.6-54.4l-220.8 150.4c6.4 19.2 9.6 38.4 9.6 60.8s-3.2 44.8-12.8 64l444.8 265.6c22.4-22.4 54.4-38.4 86.4-38.4 73.6 0 128 54.4 128 124.8 0 67.2-54.4 121.6-121.6 121.6z" />
<glyph unicode="&#xe66e;" glyph-name="share-o" d="M902.4 960c-67.2 0-121.6-54.4-121.6-121.6 0-9.6 3.2-19.2 3.2-28.8l-444.8-265.6c-38.4 38.4-89.6 64-150.4 64-102.4 0-188.8-83.2-188.8-188.8s86.4-188.8 188.8-188.8c60.8 0 115.2 28.8 150.4 73.6l217.6-147.2c-6.4-16-9.6-35.2-9.6-54.4 0-89.6 73.6-163.2 163.2-163.2s163.2 73.6 163.2 163.2c0 89.6-73.6 163.2-163.2 163.2-48 0-92.8-22.4-121.6-54.4l-220.8 150.4c6.4 19.2 9.6 38.4 9.6 60.8s-3.2 44.8-12.8 64l444.8 265.6c22.4-22.4 54.4-38.4 86.4-38.4 73.6 0 128 54.4 128 124.8 0 67.2-54.4 121.6-121.6 121.6zM710.4 201.6c54.4 0 99.2-44.8 99.2-99.2s-41.6-102.4-99.2-102.4-99.2 44.8-99.2 99.2 44.8 102.4 99.2 102.4zM188.8 294.4c-70.4 0-124.8 57.6-124.8 124.8s57.6 124.8 124.8 124.8 124.8-57.6 124.8-124.8-54.4-124.8-124.8-124.8zM902.4 777.6c-32 0-57.6 25.6-57.6 57.6s25.6 57.6 57.6 57.6c32 0 57.6-25.6 57.6-57.6s-25.6-57.6-57.6-57.6z" />
<glyph unicode="&#xe676;" glyph-name="sms" d="M512 918.4c-281.6 0-512-185.6-512-416 0-166.4 121.6-310.4 294.4-377.6-19.2-83.2-73.6-147.2-73.6-147.2s150.4 19.2 252.8 108.8c12.8 0 28.8 0 41.6 0 281.6 0 512 185.6 512 416s-233.6 416-515.2 416zM291.2 438.4c-35.2 0-64 28.8-64 64s28.8 64 64 64c35.2 0 64-28.8 64-64-3.2-35.2-28.8-64-64-64zM528 438.4c-35.2 0-64 28.8-64 64s28.8 64 64 64c35.2 0 64-28.8 64-64s-28.8-64-64-64zM768 438.4c-35.2 0-64 28.8-64 64s28.8 64 64 64c35.2 0 64-28.8 64-64s-28.8-64-64-64z" />
<glyph unicode="&#xe677;" glyph-name="sms-o" d="M512 918.4c-281.6 0-512-185.6-512-416 0-166.4 121.6-310.4 294.4-377.6-19.2-83.2-73.6-147.2-73.6-147.2s150.4 19.2 252.8 108.8c12.8 0 28.8 0 41.6 0 281.6 0 512 185.6 512 416s-233.6 416-515.2 416zM512 150.4c-12.8 0-22.4 0-38.4 0l-25.6 3.2-19.2-19.2c-22.4-22.4-51.2-38.4-80-51.2 3.2 9.6 6.4 19.2 6.4 25.6l12.8 54.4-51.2 19.2c-153.6 60.8-252.8 185.6-252.8 320 0 195.2 201.6 352 448 352s448-156.8 448-352c0-195.2-201.6-352-448-352zM355.2 502.4c0-35.346-28.654-64-64-64s-64 28.654-64 64c0 35.346 28.654 64 64 64s64-28.654 64-64zM592 502.4c0-35.346-28.654-64-64-64s-64 28.654-64 64c0 35.346 28.654 64 64 64s64-28.654 64-64zM832 502.4c0-35.346-28.654-64-64-64s-64 28.654-64 64c0 35.346 28.654 64 64 64s64-28.654 64-64z" />
<glyph unicode="&#xe678;" glyph-name="star-o" d="M803.2-48v0c-12.8 0-22.4 3.2-32 9.6l-259.2 188.8-272-188.8c-28.8-19.2-64-9.6-80 12.8-9.6 16-12.8 35.2-9.6 51.2l115.2 300.8-236.8 166.4c-22.4 16-28.8 41.6-22.4 67.2s28.8 41.6 57.6 41.6h294.4l99.2 304c9.6 25.6 32 38.4 54.4 38.4 25.6 0 48-16 54.4-38.4l102.4-304h294.4c25.6 0 48-16 57.6-41.6 6.4-25.6 0-51.2-22.4-67.2l-236.8-166.4 99.2-300.8c6.4-19.2 0-38.4-9.6-51.2-12.8-12.8-28.8-22.4-48-22.4zM512 214.4c12.8 0 22.4-3.2 32-9.6l249.6-179.2-96 288c-6.4 25.6 3.2 51.2 22.4 64l227.2 160h-281.6c-25.6 0-48 16-54.4 38.4l-96 291.2-99.2-291.2c-9.6-25.6-32-38.4-54.4-38.4h-284.8l227.2-160c22.4-16 28.8-41.6 22.4-67.2l-108.8-288 262.4 179.2c9.6 9.6 19.2 12.8 32 12.8z" />
<glyph unicode="&#xe679;" glyph-name="star" d="M486.4 928l-108.8-329.6c-3.2-12.8-16-19.2-25.6-19.2h-320c-28.8 0-38.4-35.2-16-51.2l256-182.4c9.6-6.4 16-19.2 9.6-32l-124.8-326.4c-9.6-25.6 19.2-48 41.6-32l297.6 204.8c9.6 6.4 22.4 6.4 32 0l281.6-201.6c22.4-16 51.2 6.4 44.8 32l-108.8 326.4c-3.2 12.8 0 22.4 12.8 32l259.2 182.4c22.4 16 12.8 51.2-16 51.2h-320c-12.8 0-22.4 6.4-25.6 19.2l-118.4 326.4c-6.4 25.6-44.8 25.6-51.2 0z" />
<glyph unicode="&#xe681;" glyph-name="user" d="M883.2 585.6c0-206.775-167.625-374.4-374.4-374.4s-374.4 167.625-374.4 374.4c0 206.775 167.625 374.4 374.4 374.4s374.4-167.625 374.4-374.4zM464 92.8c-92.8 9.6-179.2 41.6-249.6 96-108.8-38.4-185.6-134.4-204.8-214.4-6.4-19.2 9.6-41.6 32-41.6h947.2c22.4 0 35.2 19.2 32 41.6-19.2 80-99.2 176-211.2 214.4-70.4-54.4-156.8-89.6-249.6-96h-96z" />
<glyph unicode="&#xe682;" glyph-name="user-o" d="M508.8 896c172.8 0 310.4-140.8 310.4-310.4 0-172.8-140.8-310.4-310.4-310.4s-310.4 140.8-310.4 310.4c0 169.6 137.6 310.4 310.4 310.4zM508.8 960c-208 0-374.4-166.4-374.4-374.4s166.4-374.4 374.4-374.4 374.4 166.4 374.4 374.4c0 208-166.4 374.4-374.4 374.4v0zM812.8 118.4c57.6-28.8 102.4-73.6 124.8-118.4h-851.2c22.4 44.8 64 89.6 121.6 118.4 76.8-48 160-80 252.8-86.4h108.8c83.2 6.4 169.6 38.4 243.2 86.4zM806.4 192c-70.4-54.4-156.8-89.6-249.6-96h-96c-92.8 9.6-179.2 41.6-249.6 96-108.8-38.4-185.6-134.4-204.8-214.4-6.4-19.2 9.6-41.6 32-41.6h947.2c22.4 0 35.2 19.2 32 41.6-22.4 80-99.2 176-211.2 214.4v0z" />
<glyph unicode="&#xe683;" glyph-name="users" d="M969.6 384c0-81.296-65.904-147.2-147.2-147.2s-147.2 65.904-147.2 147.2c0 81.296 65.904 147.2 147.2 147.2s147.2-65.904 147.2-147.2zM585.6 540.8c0-137.85-111.75-249.6-249.6-249.6s-249.6 111.75-249.6 249.6c0 137.85 111.75 249.6 249.6 249.6s249.6-111.75 249.6-249.6zM643.2 198.4c-25.6 32-60.8 64-108.8 80-48-35.2-102.4-57.6-166.4-64h-64c-60.8 6.4-118.4 28.8-166.4 64-86.4-32-140.8-112-140.8-169.6h579.2zM579.2 105.6h102.4c0 28.8-12.8 60.8-35.2 92.8zM758.4 105.6h265.6c0 35.2-32 83.2-86.4 102.4-28.8-22.4-60.8-35.2-99.2-38.4h-38.4c-25.6 3.2-51.2 9.6-73.6 22.4 19.2-25.6 28.8-54.4 32-86.4z" />
<glyph unicode="&#xe684;" glyph-name="users-o" d="M969.6 384c0 83.2-67.2 147.2-147.2 147.2-83.2 0-147.2-67.2-147.2-147.2 0-83.2 67.2-147.2 147.2-147.2s147.2 67.2 147.2 147.2zM736 384c0 44.8 38.4 83.2 83.2 83.2s83.2-38.4 83.2-83.2c0-44.8-38.4-83.2-83.2-83.2s-83.2 38.4-83.2 83.2zM336 288c137.6 0 249.6 112 249.6 249.6s-112 249.6-249.6 249.6-249.6-112-249.6-249.6 112-249.6 249.6-249.6zM336 726.4c102.4 0 185.6-83.2 185.6-185.6s-83.2-185.6-185.6-185.6-185.6 83.2-185.6 185.6c0 102.4 83.2 185.6 185.6 185.6zM534.4 278.4c-48-35.2-102.4-57.6-166.4-64h-64c-60.8 6.4-118.4 28.8-166.4 64-86.4-32-140.8-112-140.8-169.6h681.6c0 28.8-12.8 60.8-35.2 92.8-25.6 32-64 60.8-108.8 76.8zM937.6 208c-28.8-22.4-60.8-35.2-99.2-38.4h-38.4c-25.6 3.2-51.2 9.6-73.6 22.4 16-25.6 25.6-54.4 28.8-86.4h268.8c0 35.2-32 83.2-86.4 102.4z" />
<glyph unicode="&#xe688;" glyph-name="qq" d="M873.6 451.2c0 0 3.2 0 0 0 6.4 32-35.2 115.2-35.2 115.2s0 0 0 0 0 0 0 3.2c16 272-153.6 390.4-329.6 390.4-150.4 0-323.2-112-320-387.2 0 0 0 0 0-3.2 0 0 0-3.2 0-3.2s0 0 0 0c-41.6-51.2-41.6-118.4-41.6-118.4s0 0 0 0c-25.6-35.2-115.2-179.2-41.6-294.4 0 0 19.2-22.4 67.2 73.6v0c22.4-57.6 57.6-105.6 99.2-144-48-9.6-80-28.8-89.6-54.4-6.4-6.4-9.6-16-9.6-22.4 0-41.6 76.8-73.6 169.6-73.6 80 0 137.6 28.8 153.6 64 3.2 0 9.6 0 12.8 0 0 0 0 0 3.2 0 12.8-35.2 83.2-64 169.6-64 96 0 160 41.6 160 83.2 0 0 0 0 0 3.2 0 0 0 0 0 3.2 0 28.8-35.2 54.4-89.6 64 41.6 35.2 76.8 83.2 99.2 144 48-96 67.2-73.6 67.2-73.6 70.4 115.2-16 252.8-44.8 294.4z" />
<glyph unicode="&#xe689;" glyph-name="weibo" d="M758.4 454.4c-38.4 6.4-19.2 28.8-19.2 28.8s38.4 64-6.4 108.8c-57.6 57.6-198.4-6.4-198.4-6.4-54.4-16-38.4 6.4-32 48 0 48-16 131.2-160 80-144-41.6-268.8-214.4-268.8-214.4-83.2-112-73.6-201.6-73.6-201.6 22.4-195.2 227.2-246.4 390.4-259.2 169.6-12.8 396.8 57.6 467.2 204.8 67.2 147.2-57.6 204.8-99.2 211.2zM403.2 89.6c-169.6-6.4-304 76.8-304 188.8 0 115.2 137.6 201.6 304 211.2 169.6 6.4 304-60.8 304-172.8s-134.4-220.8-304-227.2zM371.2 416c-169.6-19.2-150.4-179.2-150.4-179.2s-3.2-48 44.8-73.6c96-51.2 201.6-22.4 252.8 44.8 51.2 64 19.2 227.2-147.2 208zM326.4 195.2c-32-3.2-57.6 12.8-57.6 41.6 0 25.6 22.4 54.4 54.4 57.6 35.2 3.2 57.6-16 57.6-41.6 3.2-32-22.4-54.4-54.4-57.6zM425.6 278.4c-9.6-6.4-22.4-6.4-28.8 3.2s-3.2 22.4 6.4 32c12.8 9.6 25.6 6.4 32-3.2s0-25.6-9.6-32zM841.6 521.6c12.8 0 25.6 9.6 25.6 22.4v3.2c22.4 185.6-150.4 156.8-150.4 156.8-16 0-28.8-12.8-28.8-28.8s12.8-28.8 28.8-28.8c124.8 25.6 96-96 96-96 3.2-16 16-28.8 28.8-28.8zM822.4 854.4c-57.6 12.8-121.6 0-140.8-3.2l-3.2-3.2c-16-3.2-28.8-19.2-28.8-38.4 0-22.4 19.2-38.4 38.4-38.4 0 0 22.4 3.2 35.2 9.6s140.8 3.2 198.4-96c32-73.6 16-128 12.8-134.4 0 0-6.4-19.2-6.4-38.4 0-22.4 19.2-32 38.4-32s35.2 6.4 38.4 38.4v0c70.4 217.6-76.8 310.4-182.4 336z" />
<glyph unicode="&#xe68a;" glyph-name="weixin" d="M1024 329.6c0 144-144 262.4-307.2 262.4-172.8 0-307.2-118.4-307.2-262.4s134.4-262.4 307.2-262.4c35.2 0 70.4 9.6 108.8 19.2l102.4-54.4-25.6 89.6c67.2 54.4 121.6 124.8 121.6 208zM614.4 374.4c-19.2 0-35.2 19.2-35.2 35.2 0 19.2 19.2 35.2 35.2 35.2 25.6 0 44.8-19.2 44.8-35.2 0-19.2-16-35.2-44.8-35.2zM812.8 374.4c-19.2 0-35.2 19.2-35.2 35.2 0 19.2 19.2 35.2 35.2 35.2 25.6 0 44.8-19.2 44.8-35.2 3.2-19.2-19.2-35.2-44.8-35.2zM691.2 611.2c12.8 0 22.4 0 35.2-3.2-32 144-188.8 256-364.8 256-201.6 0-361.6-137.6-361.6-307.2 0-99.2 54.4-182.4 144-246.4l-35.2-108.8 124.8 64c44.8-9.6 80-19.2 124.8-19.2 12.8 0 22.4 0 32 0-6.4 25.6-9.6 48-9.6 76.8 3.2 160 140.8 288 310.4 288zM496 707.2c25.6 0 44.8-19.2 44.8-44.8s-19.2-44.8-44.8-44.8-54.4 19.2-54.4 44.8c0 28.8 25.6 44.8 54.4 44.8zM243.2 617.6c-25.6 0-54.4 19.2-54.4 44.8s25.6 44.8 54.4 44.8c25.6 0 44.8-19.2 44.8-44.8s-16-44.8-44.8-44.8z" />
<glyph unicode="&#xe68b;" glyph-name="pengyouquan" d="M675.2 934.4c-9.6 3.2-19.2 6.4-32 9.6-41.6 9.6-83.2 16-131.2 16-19.2 0-38.4 0-57.6-3.2-44.8-6.4-89.6-16-131.2-35.2l352-352v364.8zM643.2 768v0 0 0zM969.6 678.4c-6.4 9.6-9.6 19.2-16 28.8-22.4 38.4-48 73.6-80 105.6-12.8 12.8-28.8 25.6-41.6 38.4-35.2 28.8-76.8 51.2-118.4 70.4v-499.2l256 256zM828.8 582.4v0 0 0zM995.2 284.8c3.2 9.6 6.4 19.2 9.6 32 12.8 41.6 16 86.4 16 131.2 0 19.2 0 38.4-3.2 57.6-6.4 44.8-16 89.6-35.2 131.2l-352-352h364.8zM828.8 316.8v0 0 0zM736-9.6c9.6 6.4 19.2 9.6 28.8 16 38.4 22.4 73.6 48 105.6 80 12.8 12.8 25.6 28.8 38.4 41.6 28.8 35.2 51.2 76.8 70.4 118.4h-499.2l256-256zM643.2 128v0 0 0zM348.8-38.4c9.6-3.2 19.2-6.4 32-9.6 41.6-12.8 86.4-16 131.2-16 19.2 0 38.4 0 57.6 3.2 44.8 6.4 89.6 16 131.2 35.2l-352 352v-364.8zM380.8 128v0 0 0zM54.4 220.8c6.4-9.6 9.6-19.2 16-28.8 22.4-38.4 48-73.6 80-105.6 12.8-12.8 28.8-25.6 41.6-38.4 35.2-28.8 76.8-51.2 118.4-70.4v499.2l-256-256zM195.2 316.8v0 0 0zM28.8 611.2c-3.2-9.6-6.4-19.2-9.6-32-12.8-41.6-16-86.4-16-131.2 0-19.2 0-38.4 3.2-57.6 6.4-44.8 16-89.6 35.2-131.2l352 352h-364.8zM195.2 579.2v0 0 0zM284.8 905.6c-9.6-6.4-19.2-9.6-28.8-16-38.4-22.4-73.6-48-105.6-80-12.8-16-25.6-28.8-38.4-44.8-28.8-35.2-51.2-73.6-70.4-115.2h499.2l-256 256zM380.8 764.8v0 0 0z" />
<glyph unicode="&#xe68c;" glyph-name="check2" d="M371.2 76.8l-368 368 89.6 89.6 278.4-275.2 560 560 89.6-89.6z" />
<glyph unicode="&#xe900;" glyph-name="record" d="M480 540.8v-70.4h-70.4v-64h70.4v-70.4h64v70.4h70.4v64h-70.4v70.4zM339.2 665.6h348.8c19.2 0 35.2 16 35.2 35.2v105.6c0 19.2-16 35.2-35.2 35.2h-70.4c0 57.6-48 102.4-105.6 102.4s-105.6-48-105.6-102.4h-70.4c-19.2 0-35.2-16-35.2-35.2v-102.4c3.2-22.4 19.2-38.4 38.4-38.4zM512 883.2c19.2 0 35.2-16 35.2-35.2s-16-35.2-35.2-35.2c-19.2 0-35.2 16-35.2 35.2s16 35.2 35.2 35.2zM294.4 288h438.4v-64h-438.4v64zM294.4 198.4h438.4v-64h-438.4v64zM790.4 780.8h-57.6v-64h57.6c19.2 0 38.4-16 38.4-38.4v-627.2c0-19.2-16-38.4-38.4-38.4h-556.8c-19.2 0-38.4 16-38.4 38.4v630.4c0 19.2 16 38.4 38.4 38.4h64v64h-64c-57.6-3.2-102.4-48-102.4-102.4v-627.2c0-54.4 44.8-102.4 102.4-102.4h556.8c57.6 0 102.4 44.8 102.4 102.4v627.2c0 54.4-44.8 99.2-102.4 99.2z" />
<glyph unicode="&#xe901;" glyph-name="calendar" d="M275.2 406.4h470.4v-64h-470.4v64zM275.2 288h470.4v-64h-470.4v64zM867.2 864h-51.2v64c0 19.2-12.8 32-32 32s-32-12.8-32-32v-64h-480v64c0 19.2-12.8 32-32 32s-32-12.8-32-32v-64h-51.2c-80 0-147.2-64-147.2-144v-640c0-80 64-144 144-144h713.6c80 0 144 64 144 144v640c3.2 80-64 144-144 144zM156.8 800h51.2v-76.8c0-19.2 12.8-32 32-32s32 12.8 32 32v76.8h480v-76.8c0-19.2 12.8-32 32-32s32 12.8 32 32v76.8h51.2c44.8 0 80-35.2 80-80v-80h-873.6v80c0 44.8 38.4 80 83.2 80zM867.2 0h-710.4c-44.8 0-80 35.2-80 80v496h873.6v-496c0-44.8-38.4-80-83.2-80z" />
<glyph unicode="&#xe902;" glyph-name="dots" d="M841.6 800h-28.8v-64h28.8c22.4 0 41.6-19.2 41.6-41.6v-668.8c0-22.4-19.2-41.6-41.6-41.6h-659.2c-22.4 0-41.6 19.2-41.6 41.6v668.8c0 22.4 19.2 41.6 41.6 41.6h32v64h-32c-57.6 0-105.6-48-105.6-105.6v-668.8c0-57.6 48-105.6 105.6-105.6h659.2c57.6 0 105.6 48 105.6 105.6v668.8c0 57.6-48 105.6-105.6 105.6zM326.4 681.6h371.2c19.2 0 38.4 16 38.4 38.4v108.8c0 19.2-19.2 35.2-38.4 35.2h-73.6c0 60.8-51.2 112-112 112s-112-48-112-112h-73.6c-19.2 0-38.4-16-38.4-35.2v-112c0-19.2 19.2-35.2 38.4-35.2zM512 912c19.2 0 38.4-16 38.4-38.4s-16-35.2-38.4-35.2c-19.2 0-38.4 16-38.4 38.4s19.2 35.2 38.4 35.2zM438.4 528h294.4v-32h-294.4v32zM396.8 512c0-30.044-24.356-54.4-54.4-54.4s-54.4 24.356-54.4 54.4c0 30.044 24.356 54.4 54.4 54.4s54.4-24.356 54.4-54.4zM438.4 345.6h294.4v-32h-294.4v32zM396.8 329.6c0-30.044-24.356-54.4-54.4-54.4s-54.4 24.356-54.4 54.4c0 30.044 24.356 54.4 54.4 54.4s54.4-24.356 54.4-54.4zM438.4 163.2h294.4v-32h-294.4v32zM396.8 147.2c0-30.044-24.356-54.4-54.4-54.4s-54.4 24.356-54.4 54.4c0 30.044 24.356 54.4 54.4 54.4s54.4-24.356 54.4-54.4z" />
<glyph unicode="&#xe903;" glyph-name="local" d="M928 899.2h-832c-54.4 0-96-41.6-96-96v-537.6c0-54.4 41.6-96 96-96h384v-140.8h-185.6v-64h435.2v64h-185.6v140.8h384c54.4 0 96 41.6 96 96v537.6c0 54.4-41.6 96-96 96z" />
<glyph unicode="&#xe904;" glyph-name="reviewe" d="M1020.8-12.8l-233.6 233.6c150.4 176 144 438.4-22.4 604.8-86.4 86.4-201.6 131.2-313.6 131.2-115.2 0-227.2-44.8-313.6-131.2-172.8-172.8-172.8-454.4 0-630.4 86.4-86.4 201.6-131.2 313.6-131.2 102.4 0 208 35.2 291.2 108.8l233.6-233.6 44.8 48zM448 131.2c-102.4 0-198.4 38.4-268.8 112s-112 166.4-112 268.8 38.4 198.4 112 268.8c70.4 70.4 166.4 112 268.8 112s198.4-38.4 268.8-112c147.2-147.2 147.2-390.4 0-537.6-70.4-73.6-166.4-112-268.8-112zM400 451.2l-96 92.8-67.2-67.2 163.2-160 294.4 294.4-70.4 67.2z" />
<glyph unicode="&#xe905;" glyph-name="send" d="M947.2 928l-915.2-339.2 464-115.2zM540.8 435.2l112-467.2 339.2 915.2z" />
<glyph unicode="&#xe906;" glyph-name="talk" d="M652.8 662.4c-60.8 86.4-172.8 144-304 144-192 0-348.8-128-348.8-281.6 0-112 83.2-211.2 201.6-256-12.8-57.6-51.2-99.2-51.2-99.2s102.4 12.8 169.6 73.6c9.6 0 19.2 0 28.8 0 32 0 67.2 3.2 96 12.8-32 41.6-51.2 92.8-51.2 144 0 128 112 236.8 259.2 262.4zM198.4 483.2c-22.4 0-41.6 19.2-41.6 41.6s19.2 41.6 41.6 41.6c22.4 0 41.6-19.2 41.6-41.6s-19.2-41.6-41.6-41.6zM361.6 483.2c-22.4 0-41.6 19.2-41.6 41.6s19.2 41.6 41.6 41.6c22.4 0 41.6-19.2 41.6-41.6s-19.2-41.6-41.6-41.6zM1024 400c0 137.6-137.6 246.4-304 246.4s-304-108.8-304-246.4 137.6-246.4 304-246.4c9.6 0 16 0 25.6 0 60.8-54.4 150.4-64 150.4-64s-32 38.4-44.8 89.6c102.4 35.2 172.8 121.6 172.8 220.8zM566.4 361.6c-22.4 0-38.4 16-38.4 38.4s16 38.4 38.4 38.4 38.4-16 38.4-38.4-19.2-38.4-38.4-38.4zM710.4 361.6c-22.4 0-38.4 16-38.4 38.4s16 38.4 38.4 38.4 38.4-16 38.4-38.4-19.2-38.4-38.4-38.4zM851.2 361.6c-22.4 0-38.4 16-38.4 38.4s16 38.4 38.4 38.4 38.4-16 38.4-38.4-16-38.4-38.4-38.4z" />
<glyph unicode="&#xe907;" glyph-name="triage" d="M409.6 336h-83.2v-32h83.2c12.8 0 25.6-9.6 25.6-25.6v-275.2c0-12.8-9.6-25.6-25.6-25.6h-352c-12.8 0-25.6 9.6-25.6 25.6v275.2c0 12.8 9.6 25.6 25.6 25.6h83.2v32h-83.2c-32 0-57.6-25.6-57.6-57.6v-275.2c0-32 25.6-57.6 57.6-57.6h352c32 0 57.6 25.6 57.6 57.6v275.2c-3.2 32-28.8 57.6-57.6 57.6zM969.6 336h-83.2v-32h83.2c12.8 0 25.6-9.6 25.6-25.6v-275.2c0-12.8-9.6-25.6-25.6-25.6h-352c-12.8 0-25.6 9.6-25.6 25.6v275.2c0 12.8 9.6 25.6 25.6 25.6h83.2v32h-83.2c-32 0-57.6-25.6-57.6-57.6v-275.2c0-32 25.6-57.6 57.6-57.6h352c32 0 57.6 25.6 57.6 57.6v275.2c-3.2 32-28.8 57.6-57.6 57.6zM931.2 800c0-79.529-64.471-144-144-144s-144 64.471-144 144c0 79.529 64.471 144 144 144s144-64.471 144-144zM592 409.6h169.6v-224l-76.8 76.8v-92.8l108.8-108.8 108.8 108.8v92.8l-76.8-76.8v224h160c19.2 0 35.2 16 35.2 35.2v105.6c0 22.4-16 41.6-35.2 48l-76.8 22.4c-64-73.6-176-73.6-240 0v0l-76.8-22.4c-22.4-6.4-35.2-25.6-35.2-48v-105.6c-3.2-19.2 12.8-35.2 35.2-35.2zM377.6 800c0-79.529-64.471-144-144-144s-144 64.471-144 144c0 79.529 64.471 144 144 144s144-64.471 144-144zM432 598.4l-80 22.4c-64-73.6-176-73.6-240 0l-76.8-22.4c-22.4-6.4-35.2-25.6-35.2-48v-105.6c0-19.2 16-35.2 35.2-35.2h166.4v-259.2l-76.8 76.8v-92.8l108.8-108.8 108.8 108.8v92.8l-76.8-76.8v259.2h166.4c19.2 0 35.2 16 35.2 35.2v105.6c0 22.4-16 41.6-35.2 48z" />
<glyph unicode="&#xe908;" glyph-name="view" d="M1017.6 441.6c-9.6 16-227.2 345.6-505.6 345.6s-496-329.6-505.6-345.6l-6.4-9.6 6.4-9.6c9.6-12.8 227.2-313.6 505.6-313.6 73.6 0 150.4 22.4 230.4 67.2l19.2 9.6-124.8 124.8-9.6-9.6c-32-25.6-70.4-41.6-112-41.6-96 0-172.8 76.8-172.8 172.8s76.8 172.8 172.8 172.8c96 0 172.8-76.8 172.8-172.8 0-32-9.6-60.8-25.6-89.6l-6.4-9.6 131.2-131.2 9.6 6.4c131.2 89.6 217.6 211.2 220.8 214.4l6.4 9.6-6.4 9.6z" />
<glyph unicode="&#xe909;" glyph-name="x-img" d="M822.4 867.2h-620.8c-92.8 0-169.6-76.8-169.6-169.6v-499.2c0-92.8 76.8-169.6 169.6-169.6h620.8c92.8 0 169.6 76.8 169.6 169.6v499.2c0 92.8-76.8 169.6-169.6 169.6zM515.2 688c16 0 28.8-12.8 28.8-28.8s-12.8-28.8-28.8-28.8-28.8 12.8-28.8 28.8 12.8 28.8 28.8 28.8zM304 742.4c44.8 0 83.2-38.4 83.2-83.2s-35.2-83.2-83.2-83.2-83.2 38.4-83.2 83.2 38.4 83.2 83.2 83.2zM233.6 486.4c16 0 32-12.8 32-32s-12.8-32-32-32-32 12.8-32 32 12.8 32 32 32zM931.2 227.2c0-67.2-19.2-124.8-86.4-137.6h-32c-6.4 0-16-3.2-22.4-3.2h-560c-70.4 0-128 51.2-137.6 121.6 0 0-12.8 41.6 25.6 83.2s118.4 48 172.8 25.6l28.8-12.8c67.2-25.6 140.8-9.6 192 41.6l67.2 73.6c44.8 48 115.2 60.8 172.8 25.6l176-115.2v-102.4z" />
<glyph unicode="&#xe90a;" glyph-name="word" d="M1024 812.8c0 25.6-19.2 48-44.8 44.8-124.8 0-249.6 0-374.4 0 0 32 0 60.8 0 92.8h-70.4c-176-32-355.2-60.8-534.4-96 0-268.8 0-540.8 0-812.8 176-32 355.2-60.8 531.2-92.8h73.6c0 32 0 60.8 0 92.8 115.2 0 233.6 0 348.8 0 19.2 3.2 41.6 0 57.6 12.8 16 22.4 12.8 48 12.8 70.4 0 230.4 3.2 454.4 0 688zM390.4 291.2c-19.2-9.6-48 0-70.4 0-16 76.8-32 153.6-48 230.4-12.8-73.6-32-150.4-48-224-22.4 0-44.8 3.2-67.2 3.2-19.2 102.4-41.6 204.8-60.8 307.2 19.2 0 38.4 0 57.6 0 12.8-73.6 25.6-147.2 35.2-220.8 19.2 76.8 35.2 150.4 51.2 227.2 22.4 0 44.8 3.2 67.2 3.2 16-80 32-156.8 48-233.6 12.8 80 28.8 160 41.6 243.2 22.4 0 48 3.2 70.4 3.2-25.6-108.8-48-227.2-76.8-339.2zM988.8 76.8c-128 0-256 0-384 0 0 32 0 60.8 0 92.8 102.4 0 201.6 0 304 0 0 16 0 32 0 48-102.4 0-201.6 0-304 0 0 19.2 0 38.4 0 57.6 102.4 0 201.6 0 304 0 0 16 0 32 0 48-102.4 0-201.6 0-304 0 0 19.2 0 38.4 0 57.6 102.4 0 201.6 0 304 0 0 16 0 32 0 48-102.4 0-201.6 0-304 0 0 19.2 0 38.4 0 57.6 102.4 0 201.6 0 304 0 0 16 0 32 0 48-102.4 0-201.6 0-304 0 0 19.2 0 38.4 0 57.6 102.4 0 201.6 0 304 0 0 16 0 32 0 48-102.4 0-201.6 0-304 0 0 19.2 0 38.4 0 57.6 102.4 0 201.6 0 304 0 0 16 0 32 0 48-102.4 0-201.6 0-304 0 0 22.4 0 51.2 0 76.8 128 0 256 0 384 0 0-249.6 0-499.2 0-745.6z" />
<glyph unicode="&#xe90b;" glyph-name="qrcode" d="M0 512h448v448h-448v-448zM64 896h320v-320h-320v320zM160 800h128v-128h-128v128zM0-64h448v448h-448v-448zM64 320h320v-320h-320v320zM160 224h128v-128h-128v128zM576 960v-448h448v448h-448zM960 576h-320v320h320v-320zM736 800h128v-128h-128v128zM752 224h128v-128h-128v128zM608 384h128v-128h-128v128zM896 384h128v-128h-128v128zM608 64h128v-128h-128v128zM896 64h128v-128h-128v128z" />
<glyph unicode="&#xe90c;" glyph-name="p-doc" d="M809.6 323.2h-614.4c-19.2 0-32-12.8-32-32s12.8-32 32-32h614.4c19.2 0 32 12.8 32 32s-16 32-32 32zM809.6 163.2h-614.4c-19.2 0-32-12.8-32-32s12.8-32 32-32h614.4c19.2 0 32 12.8 32 32s-16 32-32 32zM809.6 515.2h-166.4c-19.2 0-32-12.8-32-32s12.8-32 32-32h166.4c19.2 0 32 12.8 32 32s-16 32-32 32zM809.6 675.2h-166.4c-19.2 0-32-12.8-32-32s12.8-32 32-32h166.4c19.2 0 32 12.8 32 32s-16 32-32 32zM912 960h-800c-60.8 0-112-51.2-112-112v-800c0-60.8 51.2-112 112-112h800c60.8 0 112 51.2 112 112v800c0 60.8-51.2 112-112 112zM992 48c0-44.8-35.2-80-80-80h-800c-44.8 0-80 35.2-80 80v800c0 44.8 35.2 80 80 80h800c44.8 0 80-35.2 80-80v-800zM502.4 691.2c0-77.762-63.038-140.8-140.8-140.8s-140.8 63.038-140.8 140.8c0 77.762 63.038 140.8 140.8 140.8s140.8-63.038 140.8-140.8zM185.6 448h355.2c6.4 0 12.8 6.4 12.8 16-6.4 32-38.4 67.2-80 80-25.6-19.2-57.6-32-92.8-35.2h-35.2c-35.2 3.2-67.2 16-92.8 35.2-41.6-16-70.4-51.2-76.8-80-3.2-6.4 3.2-16 9.6-16z" />
<glyph unicode="&#xe90d;" glyph-name="pdf" d="M150.4 393.6h-73.6v-134.4h-76.8v377.6h156.8c89.6-3.2 137.6-41.6 140.8-118.4 3.2-83.2-48-124.8-147.2-124.8zM144 576h-64v-121.6h64c48 0 73.6 22.4 73.6 60.8-3.2 38.4-25.6 60.8-73.6 60.8zM483.2 259.2h-124.8v377.6h121.6c134.4-3.2 201.6-64 204.8-185.6 6.4-134.4-60.8-198.4-201.6-192zM480 572.8h-38.4v-252.8h38.4c83.2 0 124.8 44.8 124.8 131.2-3.2 76.8-44.8 118.4-124.8 121.6zM1024 572.8h-192v-99.2h166.4v-64h-166.4v-153.6h-76.8v380.8h268.8v-64z" />
<glyph unicode="&#xe90e;" glyph-name="success" d="M697.6 489.6l-214.4-214.4-102.4 102.4c-12.8 12.8-32 12.8-44.8 0s-12.8-32 0-44.8l102.4-102.4c12.8-12.8 28.8-19.2 44.8-19.2s32 6.4 44.8 19.2l214.4 214.4c12.8 12.8 12.8 32 0 44.8s-32 12.8-44.8 0zM832 809.6h-60.8v-64h60.8c22.4 0 38.4-16 38.4-38.4v-668.8c0-22.4-16-38.4-38.4-38.4h-640c-22.4 0-38.4 16-38.4 38.4v668.8c0 22.4 16 38.4 38.4 38.4h64v64h-64c-57.6 0-102.4-44.8-102.4-102.4v-668.8c0-57.6 48-102.4 102.4-102.4h640c57.6 0 102.4 44.8 102.4 102.4v668.8c0 57.6-48 102.4-102.4 102.4zM336 678.4h355.2c19.2 0 35.2 16 35.2 35.2v105.6c0 19.2-16 35.2-35.2 35.2h-70.4c-3.2 57.6-51.2 105.6-108.8 105.6s-105.6-48-105.6-105.6h-70.4c-19.2 0-35.2-16-35.2-35.2v-105.6c0-19.2 16-35.2 35.2-35.2zM512 899.2c19.2 0 35.2-16 35.2-35.2s-16-35.2-35.2-35.2c-19.2 0-35.2 16-35.2 35.2s16 35.2 35.2 35.2z" />
<glyph unicode="&#xe90f;" glyph-name="remotely" d="M825.6 870.4c-41.6 41.6-99.2 64-156.8 64-9.6 0-16-6.4-16-16s6.4-16 16-16c0 0 0 0 0 0 51.2 0 96-19.2 131.2-54.4s54.4-83.2 54.4-131.2v0c0-9.6 6.4-16 16-16s16 6.4 16 16c3.2 57.6-19.2 115.2-60.8 153.6zM688 841.6c-9.6 0-16-9.6-16-16 0-9.6 6.4-16 16-16 0 0 0 0 0 0 22.4 0 41.6-9.6 57.6-22.4s22.4-38.4 22.4-57.6v0c0-9.6 6.4-16 16-16s16 6.4 16 16c0 28.8-12.8 57.6-32 80-22.4 19.2-48 32-80 32zM668.8 428.8v182.4c38.4 6.4 67.2 41.6 67.2 83.2 0 44.8-38.4 83.2-83.2 83.2-41.6 0-73.6-28.8-83.2-67.2h-182.4l-86.4 89.6c-28.8 25.6-76.8 22.4-99.2-9.6-134.4-198.4-73.6-496 185.6-604.8 124.8-54.4 268.8-32 377.6 41.6 32 22.4 38.4 70.4 9.6 99.2l-105.6 102.4zM422.4 678.4h150.4c6.4-32 32-60.8 67.2-67.2v-150.4l-217.6 217.6zM556.8 96c-9.6 0-16 0-25.6 0-96 0-185.6 32-259.2 86.4l-89.6-179.2c-6.4-22.4 6.4-44.8 28.8-44.8h377.6c22.4 0 38.4 22.4 28.8 44.8l-60.8 92.8z" />
<glyph unicode="&#xe910;" glyph-name="queue-up" d="M560-3.2v716.8l329.6-329.6 67.2 67.2-444.8 448-444.8-448 67.2-67.2 329.6 329.6v-716.8z" />
<glyph unicode="&#xe911;" glyph-name="queue-down" d="M464 899.2v-716.8l-329.6 329.6-67.2-67.2 444.8-448 444.8 448-67.2 67.2-329.6-329.6v716.8z" />
<glyph unicode="&#xe912;" glyph-name="browse" d="M256 848c-80 0-144-64-144-144s64-144 144-144 144 64 144 144-64 144-144 144zM416 928h-320c-35.2 0-64-28.8-64-64v-320c0-35.2 28.8-64 64-64h320c35.2 0 64 28.8 64 64v320c0 35.2-28.8 64-64 64zM256 528c-96 0-176 80-176 176s80 176 176 176 176-80 176-176c0-96-80-176-176-176zM768 848c-80 0-144-64-144-144s64-144 144-144 144 64 144 144-64 144-144 144zM928 928h-320c-35.2 0-64-28.8-64-64v-320c0-35.2 28.8-64 64-64h320c35.2 0 64 28.8 64 64v320c0 35.2-28.8 64-64 64zM768 528c-96 0-176 80-176 176s80 176 176 176 176-80 176-176c0-96-80-176-176-176zM928 416h-320c-35.2 0-64-28.8-64-64v-320c0-35.2 28.8-64 64-64h320c35.2 0 64 28.8 64 64v320c0 35.2-28.8 64-64 64zM768 32c-89.6 0-160 70.4-160 160s70.4 160 160 160 160-70.4 160-160-70.4-160-160-160zM256 336c-80 0-144-64-144-144s64-144 144-144 144 64 144 144-64 144-144 144zM416 416h-320c-35.2 0-64-28.8-64-64v-320c0-35.2 28.8-64 64-64h320c35.2 0 64 28.8 64 64v320c0 35.2-28.8 64-64 64zM256 16c-96 0-176 80-176 176s80 176 176 176 176-80 176-176-80-176-176-176z" />
<glyph unicode="&#xe913;" glyph-name="actualsize" d="M512 259.2c220.8 0 332.8 198.4 332.8 198.4s-112 198.4-332.8 198.4-332.8-198.4-332.8-198.4 112-198.4 332.8-198.4zM512 592c131.2 0 217.6-86.4 256-134.4-38.4-48-124.8-134.4-256-134.4s-217.6 86.4-256 134.4c38.4 48 124.8 134.4 256 134.4zM611.2 457.6c0-54.787-44.413-99.2-99.2-99.2s-99.2 44.413-99.2 99.2c0 54.787 44.413 99.2 99.2 99.2s99.2-44.413 99.2-99.2zM32 928v-960h960v960h-960zM928 32h-832v832h832v-832z" />
<glyph unicode="&#xe93d;" glyph-name="next" d="M60.8 400h716.8l-329.6-329.6 67.2-67.2 448 444.8-448 444.8-67.2-67.2 329.6-329.6h-716.8z" />
<glyph unicode="&#xe93e;" glyph-name="pre" d="M963.2 496h-716.8l329.6 329.6-67.2 67.2-448-444.8 448-444.8 67.2 67.2-329.6 329.6h716.8z" />
</font>
</defs>
</svg>
